<svg xmlns="http://www.w3.org/2000/svg" version="1.0" width="500.000000pt" height="500.000000pt" viewBox="0 0 500.000000 500.000000" preserveAspectRatio="xMidYMid meet">

<g transform="translate(0.000000,500.000000) scale(0.100000,-0.100000)" fill="#ff4d52" stroke="none">
<path d="M1515 4319 c-249 -28 -512 -178 -665 -380 -239 -316 -276 -732 -95 -1075 134 -254 354 -429 635 -505 41 -12 91 -25 110 -31 35 -9 50 -13 171 -43 120 -29 141 20 -224 -525 -334 -500 -354 -525 -376 -468 -4 13 -11 70 -15 128 -25 403 -37 589 -46 686 -6 61 -10 144 -10 185 0 130 -27 179 -96 179 -17 0 -43 -9 -58 -21 -23 -18 -26 -27 -26 -87 0 -37 4 -128 10 -202 18 -246 30 -413 41 -575 5 -88 14 -227 20 -310 5 -82 12 -195 15 -250 7 -113 18 -149 52 -164 30 -14 73 -13 93 2 9 7 126 176 261 377 729 1087 678 1008 678 1051 0 45 -24 75 -67 85 -16 3 -59 15 -98 25 -86 24 -114 31 -235 64 -332 89 -402 124 -555 279 -119 122 -174 225 -225 421 -13 53 -13 276 1 329 33 130 64 203 128 301 171 262 485 407 801 369 128 -15 164 -26 294 -90 148 -73 293 -222 371 -382 197 -403 34 -899 -365 -1111 -63 -34 -90 -60 -90 -91 0 -63 61 -94 127 -64 121 56 259 165 344 271 346 435 279 1062 -150 1408 -151 121 -322 192 -519 215 -98 11 -124 11 -237 -1z" fill="#ff4d52"/>
<path d="M2393 2290 c-60 -12 -96 -34 -136 -80 -54 -64 -58 -172 -8 -253 22 -36 69 -59 171 -87 93 -24 115 -46 86 -85 -22 -30 -127 -28 -179 3 -21 12 -42 22 -46 22 -4 0 -27 -28 -51 -62 l-43 -61 29 -24 c40 -33 77 -48 155 -62 96 -18 183 1 250 54 35 28 69 79 69 104 0 12 5 21 10 21 6 0 10 -8 10 -17 0 -41 24 -99 51 -124 41 -38 116 -55 166 -37 21 7 44 19 51 26 18 17 30 15 34 -4 2 -13 14 -17 51 -17 27 0 53 5 58 10 7 7 9 82 7 206 -3 221 -7 234 -83 271 -41 21 -164 28 -218 13 -27 -7 -28 -10 -25 -60 l3 -52 82 -3 c81 -3 83 -3 99 -33 8 -17 13 -37 10 -45 -5 -13 -10 -13 -35 1 -37 19 -111 19 -154 1 -37 -16 -72 -51 -82 -83 -11 -38 -22 -26 -29 30 -12 94 -50 124 -206 167 -75 20 -90 31 -90 61 0 15 7 29 16 33 30 12 93 6 123 -11 l31 -18 50 52 c28 29 50 56 50 60 0 11 -58 49 -100 66 -47 20 -126 27 -177 17z m575 -467 c34 -30 37 -59 8 -88 -48 -48 -126 -23 -126 40 0 58 72 87 118 48z" fill="#ff4d52"/>
<path d="M3492 2260 c-65 -61 -6 -156 79 -128 50 17 64 84 24 123 -30 31 -73 32 -103 5z" fill="#ff4d52"/>
<path d="M3760 2235 c-54 -23 -55 -23 -58 -69 -2 -32 -9 -49 -21 -56 -11 -5 -20 -25 -24 -47 -3 -21 -8 -46 -12 -55 -5 -13 0 -17 22 -20 l28 -3 5 -140 c4 -120 8 -144 25 -167 31 -42 86 -68 143 -68 l51 0 15 54 c24 81 22 86 -24 86 -60 0 -71 25 -68 141 l3 94 43 3 42 3 0 59 0 59 -42 3 -43 3 -3 73 c-2 48 -7 72 -15 71 -7 0 -37 -11 -67 -24z" fill="#ff4d52"/>
<path d="M4383 2114 c4 -61 49 -72 81 -21 17 26 -5 51 -47 55 -36 3 -36 3 -34 -34z m62 -10 c0 -12 -8 -20 -22 -22 -13 -2 -23 1 -23 7 0 6 7 11 16 11 11 0 14 5 10 16 -4 10 -1 14 6 12 7 -3 13 -13 13 -24z" fill="#ff4d52"/>
<path d="M3390 2110 c-21 -5 -46 -22 -62 -41 l-28 -33 0 27 c0 27 -1 27 -65 27 l-65 0 0 -240 c0 -132 3 -241 8 -241 35 -6 114 -4 124 2 10 6 14 49 16 161 3 138 5 155 24 175 11 12 32 23 47 25 23 3 28 11 43 67 16 60 16 82 0 80 -4 -1 -23 -5 -42 -9z" fill="#ff4d52"/>
<path d="M4110 2111 c-52 -11 -60 -18 -60 -60 0 -53 13 -61 98 -61 83 0 101 -11 102 -63 0 -27 0 -27 -30 -12 -65 34 -182 9 -223 -49 -30 -42 -31 -145 -2 -195 42 -71 143 -95 223 -53 47 24 56 27 47 13 -15 -25 95 -40 116 -15 7 9 10 73 7 206 -3 185 -4 194 -27 227 -13 18 -38 39 -56 47 -41 17 -149 25 -195 15z m120 -291 c27 -27 26 -75 -2 -94 -51 -36 -118 -8 -118 49 0 59 77 88 120 45z" fill="#ff4d52"/>
<path d="M3479 2084 c-5 -7 -8 -109 -7 -240 l3 -229 70 0 70 0 3 229 c1 145 -1 233 -8 240 -14 14 -119 14 -131 0z" fill="#ff4d52"/>
</g>
</svg>